<?xml version="1.0" encoding="utf-8"?>
<!-- Generator: Adobe Illustrator 19.0.0, SVG Export Plug-In . SVG Version: 6.00 Build 0)  -->
<svg version="1.1" id="Layer_1" xmlns="http://www.w3.org/2000/svg" xmlns:xlink="http://www.w3.org/1999/xlink" x="0px" y="0px"
	 viewBox="-88 350.4 121 92.6" style="enable-background:new -88 350.4 121 92.6;" xml:space="preserve">
<style type="text/css">
	.st0{fill:#00AFAA;}
</style>
<g>
	<path class="st0" d="M0.2,379.8c-0.9,0-1.8-0.1-2.6-0.2c-6.8-0.8-11.6-4.6-14.1-7.2c-2,2.7-4.1,5-5.3,6.9
		c-3.2,5-25.7,27.1-30.2,32.9c-5.1,6.4-9.2,15.7-10.1,19.5c-1.6,6.4-5.7,6.6-11.5,6.5c-11.2-0.3-10-5.9-9.6-7.2
		c0.7-2.7,1.4-2.3,1.5-2.2c-0.2-0.2-3.1-2.4-5,1.7c-3.9,8.5,1.8,12.6,17.9,12.5c4.7,0,11.9-2.6,13-4c1.1-1.3,2.1-2.3,2.3,0.9
		c0.2,3.2,3.3,3.1,3.3,3.1c1.2,0,2.1-0.4,4.9-0.8l-0.1-0.3c-0.8-2.6-0.7-6-0.3-8.6c0.8-5.1,3.9-12.4,8-15.9c2.1-1.7,5-2.6,7.5-3.5
		c2.6-1,6.2,0.5,6.9-2.9c0.7-3.1-0.7-6.4,0.6-9.3c0.7-1.6,1.1-2.3,1.4-4.1c0.2-1.4,1.4-2.9,2.1-4.1c0.9-1.2,0.9,4.4,2.6,5.5
		c1.8-0.2,4.9,0.9,5.8,2.3c0.4,0.6,0.4,1.3,0.8,1.9c0.4,0.5,1.6,0.7,1.8,1.1c0.7,1.2-0.1,2.7-1,3.8c-1,1.2-2.1,1.3-3.4,1.4
		c-1.1,1.7-1,4,0,6c1.4,2.7,2,4.7,0.8,7.3c-1.7,3.8-2.5,7.6-2.1,11.5c0,0.3,0,0.7,0,1c0.2,1.8,0.5,3.3,0.8,4.5
		c0,0.1,0.3,0.3,1.8,0.9c1.5,0.6,8.9,0.1,11-0.7c0.9-0.3,0.1-1.7-0.9-2.6c-1-0.9-4.1-0.9-4.6-1.5c-0.5-0.7-1.1-3.3-1.4-4.9
		c-0.3-1.6,0.6-9.2,0.7-11.3s2.4-4.8,3.5-6.6s6.5-9.7,7.3-11.1c1.2-2.2,1.9-3.5,2.5-7.2c0.4-2.4-0.3-11.2-0.9-15.7
		C3.9,379.6,2.1,379.8,0.2,379.8z"/>
	<path class="st0" d="M21,356.9c-0.5-0.8-8.9-1.1-10.4-1.1s-2.7-4.1-5.6-4.2c-0.4,0-0.9,0-1.6-0.1l-0.1-0.1
		c-1.5-1.1-2.2-1.2-4.4-0.7c-1.1,0.3-2.3,0.6-3.2,1.2c-0.7,0.1-1.3,0.2-1.3,0.2c-1.8-0.2-4.1-0.5-5.2,0.5c-1.3,1.2-1.7,1.9-1.9,4.1
		c-0.2,2-0.3,4.1,0.9,5c-0.2,3-1.3,5.8-2.8,8.3c2,2.2,6.3,6,12.7,6.7c2.4,0.3,4.9,0.1,7.3-0.5C5.2,375,5.5,373,5.5,373
		s0.8-0.1,1.4,0s1.2-0.5,1.7-0.9c0.5-0.4,1.4-0.9,3.4-0.7s3.5,0,4.5-0.6s1.1-1.6,1.1-1.6s1.7,0.9,2.4,0.8c0.7-0.1-0.6-2-2.2-3.3
		c-1.6-1.2-6.4-1-6.4-1s1.4-0.9,1.7-0.9c0.3,0,2.9-0.3,3.5-0.6c0.7-0.3,3.6-2.9,3.9-3.2c0.3-0.3,0-2.2,0-2.2S21.4,357.7,21,356.9z"
		/>
</g>
</svg>
